%FSLAX45Y45*%
G04 Gerber Fmt 4.5, Leading zero omitted, Abs format (unit mm)*
G04 Created by KiCad (PCBNEW (5.0.2)-1) date 06.03.2019 15:03:52*
%MOMM*%
%LPD*%
G01*
G04 APERTURE LIST*
%ADD10C,0.150000*%
%ADD11C,0.200000*%
%ADD12C,0.300000*%
G04 APERTURE END LIST*
D10*
X11750000Y-10000000D02*
G75*
G03X11750000Y-10000000I-150000J0D01*
G01*
X8550000Y-10000000D02*
G75*
G03X8550000Y-10000000I-150000J0D01*
G01*
X10400000Y-10000000D02*
G75*
G03X10400000Y-10000000I-400000J0D01*
G01*
X12000000Y-10000000D02*
G75*
G03X12000000Y-10000000I-2000000J0D01*
G01*
D11*
D12*
X8278928Y-12473214D02*
X8278928Y-12173214D01*
X8350357Y-12173214D01*
X8393214Y-12187500D01*
X8421786Y-12216071D01*
X8436071Y-12244643D01*
X8450357Y-12301786D01*
X8450357Y-12344643D01*
X8436071Y-12401786D01*
X8421786Y-12430357D01*
X8393214Y-12458929D01*
X8350357Y-12473214D01*
X8278928Y-12473214D01*
X8578928Y-12473214D02*
X8578928Y-12273214D01*
X8578928Y-12330357D02*
X8593214Y-12301786D01*
X8607500Y-12287500D01*
X8636071Y-12273214D01*
X8664643Y-12273214D01*
X8764643Y-12473214D02*
X8764643Y-12273214D01*
X8764643Y-12173214D02*
X8750357Y-12187500D01*
X8764643Y-12201786D01*
X8778928Y-12187500D01*
X8764643Y-12173214D01*
X8764643Y-12201786D01*
X8950357Y-12473214D02*
X8921786Y-12458929D01*
X8907500Y-12430357D01*
X8907500Y-12173214D01*
X9107500Y-12473214D02*
X9078928Y-12458929D01*
X9064643Y-12430357D01*
X9064643Y-12173214D01*
X9450357Y-12473214D02*
X9450357Y-12173214D01*
X9550357Y-12387500D01*
X9650357Y-12173214D01*
X9650357Y-12473214D01*
X9921786Y-12473214D02*
X9921786Y-12316071D01*
X9907500Y-12287500D01*
X9878928Y-12273214D01*
X9821786Y-12273214D01*
X9793214Y-12287500D01*
X9921786Y-12458929D02*
X9893214Y-12473214D01*
X9821786Y-12473214D01*
X9793214Y-12458929D01*
X9778928Y-12430357D01*
X9778928Y-12401786D01*
X9793214Y-12373214D01*
X9821786Y-12358929D01*
X9893214Y-12358929D01*
X9921786Y-12344643D01*
X10064643Y-12273214D02*
X10064643Y-12573214D01*
X10064643Y-12287500D02*
X10093214Y-12273214D01*
X10150357Y-12273214D01*
X10178928Y-12287500D01*
X10193214Y-12301786D01*
X10207500Y-12330357D01*
X10207500Y-12416071D01*
X10193214Y-12444643D01*
X10178928Y-12458929D01*
X10150357Y-12473214D01*
X10093214Y-12473214D01*
X10064643Y-12458929D01*
X10336071Y-12444643D02*
X10350357Y-12458929D01*
X10336071Y-12473214D01*
X10321786Y-12458929D01*
X10336071Y-12444643D01*
X10336071Y-12473214D01*
X10336071Y-12287500D02*
X10350357Y-12301786D01*
X10336071Y-12316071D01*
X10321786Y-12301786D01*
X10336071Y-12287500D01*
X10336071Y-12316071D01*
M02*
